<?xml version="1.0" encoding="UTF-8" standalone="no"?>
<!-- Created with Inkscape (http://www.inkscape.org/) -->

<!-- Icon created for SceneHere (c) 2010 Simon Brooke $Revision: 1.2 $ -->

<svg
   xmlns:dc="http://purl.org/dc/elements/1.1/"
   xmlns:cc="http://creativecommons.org/ns#"
   xmlns:rdf="http://www.w3.org/1999/02/22-rdf-syntax-ns#"
   xmlns:svg="http://www.w3.org/2000/svg"
   xmlns="http://www.w3.org/2000/svg"
   xmlns:sodipodi="http://sodipodi.sourceforge.net/DTD/sodipodi-0.dtd"
   xmlns:inkscape="http://www.inkscape.org/namespaces/inkscape"
   width="240.5"
   height="317.00851"
   id="svg2"
   sodipodi:version="0.32"
   inkscape:version="0.92.3 (2405546, 2018-03-11)"
   sodipodi:docname="Operator-pin.svg"
   inkscape:output_extension="org.inkscape.output.svg.inkscape"
   inkscape:export-filename="/home/simon/workspace/youyesyet/resources/public/img/map-pins/basic_map_pin.png"
   inkscape:export-xdpi="11.98"
   inkscape:export-ydpi="11.98"
   version="1.1">
  <defs
     id="defs4">
    <linearGradient
       id="linearGradient3155">
      <stop
         style="stop-color:#ffff67;stop-opacity:1;"
         offset="0"
         id="stop3157" />
      <stop
         id="stop3163"
         offset="1"
         style="stop-color:#ffd200;stop-opacity:0.74789917;" />
      <stop
         style="stop-color:#ffff67;stop-opacity:0;"
         offset="1"
         id="stop3159" />
    </linearGradient>
    <inkscape:perspective
       sodipodi:type="inkscape:persp3d"
       inkscape:vp_x="0 : 526.18109 : 1"
       inkscape:vp_y="0 : 1000 : 0"
       inkscape:vp_z="744.09448 : 526.18109 : 1"
       inkscape:persp3d-origin="372.04724 : 350.78739 : 1"
       id="perspective10" />
  </defs>
  <sodipodi:namedview
     id="base"
     pagecolor="#ffffff"
     bordercolor="#666666"
     borderopacity="1.0"
     gridtolerance="10000"
     guidetolerance="10"
     objecttolerance="10"
     inkscape:pageopacity="0.0"
     inkscape:pageshadow="2"
     inkscape:zoom="0.98994949"
     inkscape:cx="-545.31499"
     inkscape:cy="86.04423"
     inkscape:document-units="px"
     inkscape:current-layer="layer1"
     showgrid="true"
     inkscape:window-width="1920"
     inkscape:window-height="1016"
     inkscape:window-x="0"
     inkscape:window-y="27"
     fit-margin-top="0"
     fit-margin-left="0"
     fit-margin-right="0"
     fit-margin-bottom="0"
     inkscape:window-maximized="1">
    <inkscape:grid
       type="xygrid"
       id="grid2383"
       originx="-384.75"
       originy="-548.24148" />
  </sodipodi:namedview>
  <metadata
     id="metadata7">
    <rdf:RDF>
      <cc:Work
         rdf:about="">
        <dc:format>image/svg+xml</dc:format>
        <dc:type
           rdf:resource="http://purl.org/dc/dcmitype/StillImage" />
        <dc:title>Basic pin for SceneHere</dc:title>
        <dc:date>20100801</dc:date>
        <dc:creator>
          <cc:Agent>
            <dc:title>Simon Brooke</dc:title>
          </cc:Agent>
        </dc:creator>
        <dc:rights>
          <cc:Agent>
            <dc:title>Copyright (c) 2010 Simon Brooke</dc:title>
          </cc:Agent>
        </dc:rights>
        <dc:identifier>basic_map_pin.svg</dc:identifier>
        <dc:description>
		Basic default map pin
		$Revision: 1.2 $
	</dc:description>
      </cc:Work>
    </rdf:RDF>
  </metadata>
  <g
     inkscape:label="Layer 1"
     inkscape:groupmode="layer"
     id="layer1"
     transform="translate(-384.75,-187.11218)">
    <path
       style="fill:#ffff00;fill-opacity:0.70403586;fill-rule:evenodd;stroke:#4f4f4f;stroke-width:10.5;stroke-linecap:butt;stroke-linejoin:miter;stroke-miterlimit:4;stroke-dasharray:none;stroke-opacity:1"
       d="m 430,192.36218 150,0 c 20,1e-5 40,20.00001 40,40 l 0,150 c 0,20.00001 -20,40.00001 -40,40 l -40,0 c -20,0 -20,46.66667 -30,70 -13.33333,-23.33333 -20,-70 -40,-70 l -40,0 c -20,10e-6 -40,-19.99999 -40,-40 l 0,-150 c 0,-19.99999 20,-39.99999 40,-40 z"
       id="path2387"
       sodipodi:nodetypes="cccccccccccc"
       inkscape:connector-curvature="0"
       inkscape:export-xdpi="11.98"
       inkscape:export-ydpi="11.98" />
    <g
       id="g876"
       transform="matrix(0.49307722,0,0,0.49307722,402.02132,206.34179)">
      <path
         id="path821"
         d="M 310.475,82.607 C 306.784,59.511 295.724,39.802 278.007,25.069 259.67,9.821 235.237,0.92 209.188,0.006 c -0.234,-0.009 -0.461,-0.009 -0.696,0 -26.049,0.914 -50.491,9.815 -68.828,25.063 -17.718,14.733 -28.753,34.439 -32.444,57.538 -9.664,0.339 -17.372,8.306 -17.372,18.05 v 26.704 c 0,9.959 8.009,18.184 17.968,18.184 h 8.062 c 5.522,0 9.971,-4.6 9.971,-10.123 V 96.44 c 2,-50.704 43.059,-74.898 83.002,-76.433 39.946,1.535 80.998,25.725 82.998,76.435 v 29.436 l -11.802,0.549 c 1.317,-7.852 1.827,-16.198 1.5,-24.942 -1.677,-44.887 -38.678,-66.604 -72.343,-67.786 -0.232,-0.009 -0.471,-0.009 -0.703,0 -33.664,1.182 -70.662,22.898 -72.344,67.785 -1.388,37.1 12.439,67.066 37.937,82.214 10.719,6.368 22.736,9.552 34.754,9.552 12.018,0 24.035,-3.184 34.754,-9.552 13.972,-8.301 24.44,-20.991 30.821,-36.927 l 27.627,-1.225 h 7.828 c 9.959,0 17.972,-8.225 17.972,-18.184 v -26.704 c -0.001,-9.745 -7.711,-17.711 -17.375,-18.051 z m -51.007,44.778 -36.506,1.7 c -5.518,0.257 -9.781,4.938 -9.524,10.455 0.257,5.517 4.901,9.784 10.455,9.524 l 27.789,-1.294 c -4.621,7.897 -10.773,14.266 -18.296,18.734 -15.135,8.992 -33.941,8.992 -49.076,0 -19.007,-11.292 -29.273,-34.717 -28.167,-64.271 1.204,-32.143 27.279,-47.508 52.707,-48.533 25.429,1.025 51.503,16.39 52.703,48.533 0.337,9.008 -0.383,17.45 -2.085,25.152 z m 37.937,151.238 c -8.271,-44.662 -50.436,-64.653 -88.555,-64.654 -0.002,0 0.001,0 -0.001,0 -38.118,0 -80.286,19.994 -88.558,64.653 L 96.725,405.856 c -0.541,2.921 0.245,5.866 2.145,8.15 1.9,2.284 4.718,3.539 7.688,3.539 h 147.539 c 5.522,0 10,-4.477 10,-10 0,-5.523 -4.478,-10 -10,-10 H 118.581 l 21.377,-115.346 c 3.056,-16.502 12.642,-28.305 25.163,-36.213 4.284,14.83 21.338,24.559 43.722,24.559 0.003,0 0.003,0 0.006,0 22.385,0 39.442,-9.696 43.729,-24.525 12.521,7.907 22.105,19.821 25.161,36.323 l 23.568,127.194 c 0.893,4.815 5.095,8.161 9.821,8.161 0.604,0 1.218,-0.065 1.833,-0.179 5.431,-1.006 9.018,-6.228 8.012,-11.659 z M 233.41,240.302 c -1.465,5.657 -12.252,10.243 -24.562,10.243 -0.001,0 -0.004,0 -0.005,0 -12.306,0 -23.092,-4.587 -24.555,-10.244 l -0.662,-2.636 c 8.208,-2.438 16.835,-3.657 25.224,-3.657 8.389,0 17.014,1.238 25.222,3.677 z"
         inkscape:connector-curvature="0" />
      <g
         id="g823" />
      <g
         id="g825" />
      <g
         id="g827" />
      <g
         id="g829" />
      <g
         id="g831" />
      <g
         id="g833" />
      <g
         id="g835" />
      <g
         id="g837" />
      <g
         id="g839" />
      <g
         id="g841" />
      <g
         id="g843" />
      <g
         id="g845" />
      <g
         id="g847" />
      <g
         id="g849" />
      <g
         id="g851" />
    </g>
  </g>
</svg>
